<svg xmlns="http://www.w3.org/2000/svg" xmlns:svg="http://www.w3.org/2000/svg" xmlns:xlink="http://www.w3.org/1999/xlink" id="svg3489" width="64" height="64" version="1.1"><defs id="defs3491"><linearGradient id="linearGradient4330"><stop style="stop-color:#fff;stop-opacity:1" id="stop4332" offset="0"/><stop style="stop-color:#fff;stop-opacity:0" id="stop4334" offset="1"/></linearGradient><linearGradient id="linearGradient4320"><stop id="stop4322" offset="0" style="stop-color:#fff;stop-opacity:1"/><stop id="stop4324" offset=".006" style="stop-color:#fff;stop-opacity:.23529412"/><stop id="stop4326" offset=".796" style="stop-color:#fff;stop-opacity:.15686275"/><stop id="stop4328" offset="1" style="stop-color:#fff;stop-opacity:.39215687"/></linearGradient><linearGradient id="linearGradient23419"><stop id="stop23421" offset="0" style="stop-color:#000;stop-opacity:1"/><stop id="stop23423" offset="1" style="stop-color:#000;stop-opacity:0"/></linearGradient><radialGradient id="radialGradient3300-9" cx="99.189" cy="185.297" r="62.769" fx="99.189" fy="185.297" gradientTransform="matrix(0.3823536,7.5555777e-8,-1.8372241e-8,0.1115198,-5.9254271,36.335849)" gradientUnits="userSpaceOnUse" xlink:href="#linearGradient23419"/><radialGradient id="radialGradient4192" cx="99.189" cy="185.297" r="62.769" fx="99.189" fy="185.297" gradientTransform="matrix(0.2549024,5.3967361e-8,-1.2248161e-8,0.07965545,6.7163816,44.240666)" gradientUnits="userSpaceOnUse" xlink:href="#linearGradient23419"/><linearGradient id="linearGradient2793-2-0-669-94-2"><stop style="stop-color:#b4b4b4;stop-opacity:1" id="stop4681-3-1" offset="0"/><stop style="stop-color:#fff;stop-opacity:1" id="stop4683-67-4" offset="1"/></linearGradient><linearGradient id="linearGradient4260" x1="34.57" x2="34.57" y1="8.7" y2="55.547" gradientUnits="userSpaceOnUse" xlink:href="#linearGradient5362"/><linearGradient id="linearGradient4318" x1="47.381" x2="47.381" y1="18.936" y2="40.217" gradientTransform="matrix(2.3268746,0,0,2.3268746,-55.94475,-32.842783)" gradientUnits="userSpaceOnUse" xlink:href="#linearGradient4320"/><linearGradient id="linearGradient4336" x1="32.007" x2="7.752" y1="29.056" y2="29.056" gradientUnits="userSpaceOnUse" xlink:href="#linearGradient4330"/><linearGradient id="linearGradient4378" x1="51.117" x2="51.117" y1="9.192" y2="64.026" gradientUnits="userSpaceOnUse" xlink:href="#linearGradient5668"/><linearGradient id="linearGradient4663-2" x1="56.41" x2="-113.564" y1="-6.986" y2="-6.986" gradientTransform="matrix(0.1783638,0,0,0.1558618,28.16334,3.7580457)" gradientUnits="userSpaceOnUse" spreadMethod="reflect" xlink:href="#linearGradient2793-2-0-669-94-2"/><linearGradient id="linearGradient5362"><stop id="stop5364" offset="0" style="stop-color:#ffe16b;stop-opacity:1"/><stop id="stop5366" offset="1" style="stop-color:#f9c440;stop-opacity:1"/></linearGradient><linearGradient id="linearGradient5668"><stop id="stop5670" offset="0" style="stop-color:#ad5f00;stop-opacity:1"/><stop id="stop5672" offset="1" style="stop-color:#ad5f00;stop-opacity:0"/></linearGradient></defs><metadata id="metadata3494"/><g id="g4198" transform="translate(1.55e-6,-0.00183192)"><path id="path3818-0" d="m 55.999998,57.0017 a 24,6.9985714 0 1 1 -47.9999991,0 24,6.9985714 0 1 1 47.9999991,0 z" style="opacity:.2;fill:url(#radialGradient3300-9);fill-opacity:1;stroke:none"/><path style="opacity:.4;fill:url(#radialGradient4192);fill-opacity:1;stroke:none" id="path4190" d="m 47.999998,59.0017 a 16,4.9988822 0 1 1 -31.999999,0 16,4.9988822 0 1 1 31.999999,0 z"/></g><path style="color:#000;clip-rule:nonzero;display:inline;overflow:visible;visibility:visible;opacity:1;isolation:auto;mix-blend-mode:normal;color-interpolation:sRGB;color-interpolation-filters:linearRGB;solid-color:#000;solid-opacity:1;fill:url(#linearGradient4663-2);fill-opacity:1;fill-rule:nonzero;stroke:none;stroke-width:1;stroke-linecap:butt;stroke-linejoin:miter;stroke-miterlimit:4;stroke-dasharray:none;stroke-dashoffset:0;stroke-opacity:1;marker:none;color-rendering:auto;image-rendering:auto;shape-rendering:auto;text-rendering:auto;enable-background:accumulate" id="path4417" d="M 32,3.0332031 8.0097656,10.867188 C 8.0083869,27.35843 7.9348319,36.399064 10.839844,42.943359 13.7462,49.490684 19.710549,53.799726 32,60.908203 44.289451,53.799726 50.2538,49.490684 53.160156,42.943359 56.065168,36.399064 55.991613,27.35843 55.990234,10.867188 L 32,3.0332031 Z"/><path style="color:#000;clip-rule:nonzero;display:inline;overflow:visible;visibility:visible;opacity:1;isolation:auto;mix-blend-mode:normal;color-interpolation:sRGB;color-interpolation-filters:linearRGB;solid-color:#000;solid-opacity:1;fill:url(#linearGradient4260);fill-opacity:1;fill-rule:nonzero;stroke:none;stroke-width:1;stroke-linecap:butt;stroke-linejoin:miter;stroke-miterlimit:4;stroke-dasharray:none;stroke-dashoffset:0;stroke-opacity:1;marker:none;color-rendering:auto;image-rendering:auto;shape-rendering:auto;text-rendering:auto;enable-background:accumulate" id="path8119" d="M 12,15 32,8 52,15 C 52,41.948424 52.603635,44.09343 32,56 11.224985,44.00554 12,41.938589 12,15 Z"/><path style="color:#000;clip-rule:nonzero;display:inline;overflow:visible;visibility:visible;opacity:.2;isolation:auto;mix-blend-mode:normal;color-interpolation:sRGB;color-interpolation-filters:linearRGB;solid-color:#000;solid-opacity:1;fill:url(#linearGradient4336);fill-opacity:1;fill-rule:nonzero;stroke:none;stroke-width:1;stroke-linecap:butt;stroke-linejoin:miter;stroke-miterlimit:4;stroke-dasharray:none;stroke-dashoffset:0;stroke-opacity:1;marker:none;color-rendering:auto;image-rendering:auto;shape-rendering:auto;text-rendering:auto;enable-background:accumulate" id="path8169" d="m 7.5,10.34375 24.5,-8 c 0,23.5 0,39.5 0,59 -25,-14.433757 -24.5,-17.5 -24.5,-51 z"/><path style="opacity:.5;fill:none;fill-opacity:1;stroke:#555761;stroke-width:1;stroke-linecap:round;stroke-linejoin:round;stroke-opacity:1;color:#000;clip-rule:nonzero;display:inline;overflow:visible;visibility:visible;isolation:auto;mix-blend-mode:normal;color-interpolation:sRGB;color-interpolation-filters:linearRGB;solid-color:#000;solid-opacity:1;fill-rule:nonzero;stroke-miterlimit:4;stroke-dasharray:none;stroke-dashoffset:0;filter-blend-mode:normal;filter-gaussianBlur-deviation:0;color-rendering:auto;image-rendering:auto;shape-rendering:auto;text-rendering:auto;enable-background:accumulate" id="path8117" d="m 7.5,10.5 24.5,-8 24.5,8 c 0,33.5 0,36.854918 -24.5,51 C 7.5,47.354918 7.5,44 7.5,10.5 Z"/><path id="path8128" d="M 12.500586,15.354167 32,8.5 51.499414,15.354167 C 51.499414,42.040607 51.896761,44.001923 32,55.5 12.10324,44.001923 12.500586,42.040607 12.500586,15.354167 Z" style="opacity:.5;fill:none;fill-opacity:1;stroke:#555761;stroke-width:1;stroke-linecap:round;stroke-linejoin:round;stroke-opacity:1"/><path id="path8188" d="M 12.804688,36.416016 C 14.138443,45.863528 18.668428,49.295859 32,57 45.331572,49.295859 49.861556,45.863528 51.195312,36.416016 49.80149,43 48,47.293646 32,56 16.28125,47.293646 14.26101,43.5 12.804688,36.416016 Z" style="opacity:.3;fill:#fff;fill-opacity:1;stroke:none;stroke-width:1;stroke-linecap:round;stroke-linejoin:round;stroke-opacity:1"/><path id="path8211" d="M 8.5012014,11.220971 32,3.5507813 55.498799,11.225014 C 55.498799,43.589426 55,46.968233 32,60.34375 9,46.968233 8.5012014,43.585383 8.5012014,11.220971 Z" style="opacity:.7;fill:none;fill-opacity:1;stroke:url(#linearGradient4318);stroke-width:1;stroke-linecap:round;stroke-linejoin:round;stroke-miterlimit:4;stroke-dasharray:none;stroke-opacity:1;color:#000;clip-rule:nonzero;display:inline;overflow:visible;visibility:visible;isolation:auto;mix-blend-mode:normal;color-interpolation:sRGB;color-interpolation-filters:linearRGB;solid-color:#000;solid-opacity:1;fill-rule:nonzero;stroke-dashoffset:0;marker:none;filter-blend-mode:normal;filter-gaussianBlur-deviation:0;color-rendering:auto;image-rendering:auto;shape-rendering:auto;text-rendering:auto;enable-background:accumulate"/><path style="opacity:.15;fill:none;fill-opacity:0;stroke:url(#linearGradient4378);stroke-width:1;stroke-linecap:round;stroke-linejoin:miter;stroke-opacity:1;color:#000;clip-rule:nonzero;display:inline;overflow:visible;visibility:visible;isolation:auto;mix-blend-mode:normal;color-interpolation:sRGB;color-interpolation-filters:linearRGB;solid-color:#000;solid-opacity:1;fill-rule:nonzero;stroke-miterlimit:4;stroke-dasharray:none;stroke-dashoffset:0;marker:none;filter-blend-mode:normal;filter-gaussianBlur-deviation:0;color-rendering:auto;image-rendering:auto;shape-rendering:auto;text-rendering:auto;enable-background:accumulate" id="path4353" d="m 32,9.5625 -18.484375,6.496094 c -7.46e-4,12.779272 -0.0067,19.818133 2.185547,24.65039 2.198876,4.846889 6.76533,8.089357 16.298828,13.621094 9.533498,-5.531737 14.099952,-8.774205 16.298828,-13.621094 2.192239,-4.832257 2.186293,-11.871118 2.185547,-24.65039 L 32,9.5625 Z"/><path id="path7680-5" d="M 31.953125,21 22.039062,26.757812 22,38.242188 32,44 42,38.251953 41.957031,26.757812 Z m 0,1.13308 v 8.093482 L 32.972289,30.840454 32,31.400967 24,26.75 Z M 41,27.362553 v 10.309322 l -9,5.177734 V 32.540287 Z" style="color:#000;font-variation-settings:normal;clip-rule:nonzero;display:inline;overflow:visible;visibility:visible;isolation:auto;mix-blend-mode:normal;color-interpolation:sRGB;color-interpolation-filters:linearRGB;solid-color:#000;solid-opacity:1;vector-effect:none;fill:#fff;fill-opacity:1;fill-rule:nonzero;stroke:none;stroke-width:.843237;stroke-linecap:butt;stroke-linejoin:miter;stroke-miterlimit:4;stroke-dasharray:none;stroke-dashoffset:0;stroke-opacity:1;-inkscape-stroke:none;marker:none;marker-start:none;marker-mid:none;marker-end:none;paint-order:normal;color-rendering:auto;image-rendering:auto;shape-rendering:auto;text-rendering:auto;enable-background:accumulate;stop-color:#000;opacity:.3;stop-opacity:1"/><path id="path7680" d="M 31.953125,20 22.039062,25.757812 22,37.242188 32,43 42,37.251953 41.957031,25.757812 Z m 0,1.13308 v 8.093482 L 32.972289,29.840454 32,30.400967 24,25.75 Z M 41,26.362553 v 10.309322 l -9,5.177734 V 31.540287 Z" style="color:#000;clip-rule:nonzero;display:inline;overflow:visible;visibility:visible;isolation:auto;mix-blend-mode:normal;color-interpolation:sRGB;color-interpolation-filters:linearRGB;solid-color:#000;solid-opacity:1;vector-effect:none;fill:#7a0000;fill-opacity:1;fill-rule:nonzero;stroke:none;stroke-width:.843237;stroke-linecap:butt;stroke-linejoin:miter;stroke-miterlimit:4;stroke-dasharray:none;stroke-dashoffset:0;stroke-opacity:1;marker:none;marker-start:none;marker-mid:none;marker-end:none;paint-order:normal;color-rendering:auto;image-rendering:auto;shape-rendering:auto;text-rendering:auto;enable-background:accumulate;font-variation-settings:normal;opacity:1;-inkscape-stroke:none;stop-color:#000;stop-opacity:1"/></svg>